<mxfile host="app.diagrams.net" modified="2024-01-26T17:55:25.662Z" agent="Mozilla/5.0 (Windows NT 10.0; Win64; x64) AppleWebKit/537.36 (KHTML, like Gecko) Chrome/120.0.0.0 Safari/537.36" version="23.0.2" etag="3RWsmaooD-9yuvSMKzPO" type="github">
  <diagram name="Page-1" id="-16CKyp9DP5Ohij80Bul">
    <mxGraphModel>
      <root>
        <mxCell id="0" />
        <mxCell id="1" parent="0" />
      </root>
    </mxGraphModel>
  </diagram>
</mxfile>
